<?xml version="1.0" standalone="no"?><!DOCTYPE svg PUBLIC "-//W3C//DTD SVG 1.1//EN" "http://www.w3.org/Graphics/SVG/1.1/DTD/svg11.dtd"><svg class="icon" width="200px" height="200.00px" viewBox="0 0 1024 1024" version="1.1" xmlns="http://www.w3.org/2000/svg"><path d="M0 0m125.582536 0l772.834928 0q125.582536 0 125.582536 125.582536l0 772.834928q0 125.582536-125.582536 125.582536l-772.834928 0q-125.582536 0-125.582536-125.582536l0-772.834928q0-125.582536 125.582536-125.582536Z" fill="#FF6666" /><path d="M724.862399 131.987246v15.697817h-37.674761v-15.697817h-37.674761v15.697817h-37.674761v-15.697817h-39.307334v15.697817h-37.67476v-15.697817h-37.674761v15.697817h-37.674761v-15.697817h-37.674761v15.697817h-37.674761v-15.697817h-37.674761v15.697817h-37.674761v-15.697817h-39.432916v15.697817h-37.674761v-15.697817h-1.381408a17.581555 17.581555 0 0 0-17.581555 17.581555v668.099092h18.962963v-37.674761h37.674761v37.674761h39.181751v-37.674761h37.674761v37.674761h37.674761v-37.674761h37.674761v37.674761h37.674761v-37.674761h37.674761v37.674761h37.674761v-37.674761h37.67476v37.674761h39.181752v-37.674761h37.674761v37.674761h37.67476v-37.674761h37.674761v37.674761h17.581555v-668.099092a17.581555 17.581555 0 0 0-17.581555-17.581555z" fill="#FFFFFF" /><path d="M268.997792 263.220996h150.824626v20.846701H268.997792zM535.232769 263.220996h150.824626v20.846701H535.232769zM268.997792 320.235467h417.059603v20.846701H268.997792zM268.997792 377.249939h417.059603v20.846701H268.997792zM268.997792 434.389993h417.059603v20.846701H268.997792zM268.997792 491.404464h379.636007v20.846701H268.997792zM268.997792 548.418935h321.993623v20.846701H268.997792zM268.997792 605.433407h286.956096v20.846701H268.997792zM268.997792 662.447878h75.475105v20.846701h-75.475105zM439.790042 662.447878h75.475104v20.846701h-75.475104z" fill="#E3E1E1" /><path d="M732.146186 714.815796m-177.071376 0a177.071376 177.071376 0 1 0 354.142752 0 177.071376 177.071376 0 1 0-354.142752 0Z" fill="#FF6666" /><path d="M728.37871 568.763306a141.531518 141.531518 0 1 0 141.154771 141.531519A141.531518 141.531518 0 0 0 728.37871 568.763306z m-15.948982 157.731666v43.702722l-78.991416-78.112337 78.489086-72.837871v43.07481s83.010056-3.265146 111.894039 96.321805a129.72676 129.72676 0 0 0-111.391709-32.149129z" fill="#FFFFFF" /></svg>